# Blender v2.79 (sub 0) OBJ File: ''
# www.blender.org
mtllib file.mtl
o Cube_Cube.007
v 0.667906 0.543350 -0.680667
v 0.636558 0.543036 -0.680667
v 0.667906 0.543350 -0.756594
v 0.636558 0.543036 -0.756594
v 0.666516 0.682129 -0.680667
v 0.635168 0.681815 -0.680667
v 0.666516 0.682129 -0.756594
v 0.635168 0.681815 -0.756594
vt 0.000000 0.000000
vt 1.000000 0.000000
vt 1.000000 1.000000
vt 0.000000 1.000000
vt 0.000000 0.000000
vt 1.000000 0.000000
vt 1.000000 1.000000
vt 0.000000 1.000000
vt 0.000000 0.000000
vt 1.000000 0.000000
vt 1.000000 1.000000
vt 0.000000 1.000000
vt 0.000000 0.000000
vt 1.000000 0.000000
vt 1.000000 1.000000
vt 0.000000 1.000000
vt 1.000000 0.000000
vt 1.000000 1.000000
vt 0.000000 0.000000
vt 0.000000 1.000000
vn 0.0100 -0.9999 0.0000
vn -0.0000 0.0000 -1.0000
vn -0.0100 0.9999 0.0000
vn 0.0000 0.0000 1.0000
vn 0.9999 0.0100 0.0000
vn -0.9999 -0.0100 0.0000
usemtl None
s off
f 1/1/1 2/2/1 4/3/1 3/4/1
f 3/5/2 4/6/2 8/7/2 7/8/2
f 7/9/3 8/10/3 6/11/3 5/12/3
f 5/13/4 6/14/4 2/15/4 1/16/4
f 3/5/5 7/17/5 5/18/5 1/16/5
f 8/19/6 4/6/6 2/15/6 6/20/6
o Cube.001_Cube.008
v 0.669236 0.543203 -0.680667
v 0.667908 0.543190 -0.680667
v 0.669236 0.543203 -0.756594
v 0.667908 0.543190 -0.756594
v 0.667846 0.681976 -0.680667
v 0.666518 0.681962 -0.680667
v 0.667846 0.681976 -0.756594
v 0.666518 0.681962 -0.756594
vt 0.000000 0.000000
vt 1.000000 0.000000
vt 1.000000 1.000000
vt 0.000000 1.000000
vt 0.000000 0.000000
vt 1.000000 0.000000
vt 1.000000 1.000000
vt 0.000000 1.000000
vt 0.000000 0.000000
vt 1.000000 0.000000
vt 1.000000 1.000000
vt 0.000000 1.000000
vt 0.000000 0.000000
vt 1.000000 0.000000
vt 1.000000 1.000000
vt 0.000000 1.000000
vt 1.000000 0.000000
vt 1.000000 1.000000
vt 0.000000 0.000000
vt 0.000000 1.000000
vn 0.0101 -0.9999 0.0000
vn -0.0000 0.0000 -1.0000
vn -0.0101 0.9999 0.0000
vn -0.0000 0.0000 1.0000
vn 0.9999 0.0100 0.0000
vn -0.9999 -0.0100 0.0000
usemtl None_file02-2.jpg
s off
f 9/21/7 10/22/7 12/23/7 11/24/7
f 11/25/8 12/26/8 16/27/8 15/28/8
f 15/29/9 16/30/9 14/31/9 13/32/9
f 13/33/10 14/34/10 10/35/10 9/36/10
f 11/25/11 15/37/11 13/38/11 9/36/11
f 16/39/12 12/26/12 10/35/12 14/40/12
o Cube.002_Cube.009
v 0.636463 0.543203 -0.680667
v 0.635135 0.543190 -0.680667
v 0.636463 0.543203 -0.756594
v 0.635135 0.543190 -0.756594
v 0.635072 0.681976 -0.680667
v 0.633744 0.681962 -0.680667
v 0.635072 0.681976 -0.756594
v 0.633744 0.681962 -0.756594
vt 0.000000 0.000000
vt 1.000000 0.000000
vt 1.000000 1.000000
vt 0.000000 1.000000
vt 0.000000 0.000000
vt 1.000000 0.000000
vt 1.000000 1.000000
vt 0.000000 1.000000
vt 0.000000 0.000000
vt 1.000000 0.000000
vt 1.000000 1.000000
vt 0.000000 1.000000
vt 0.000000 0.000000
vt 1.000000 0.000000
vt 1.000000 1.000000
vt 0.000000 1.000000
vt 1.000000 0.000000
vt 1.000000 1.000000
vt 0.000000 0.000000
vt 0.000000 1.000000
vn 0.0101 -0.9999 0.0000
vn -0.0000 0.0000 -1.0000
vn -0.0101 0.9999 0.0000
vn -0.0000 0.0000 1.0000
vn 0.9999 0.0100 0.0000
vn -0.9999 -0.0100 0.0000
usemtl None_file02-2.jpg
s off
f 17/41/13 18/42/13 20/43/13 19/44/13
f 19/45/14 20/46/14 24/47/14 23/48/14
f 23/49/15 24/50/15 22/51/15 21/52/15
f 21/53/16 22/54/16 18/55/16 17/56/16
f 19/45/17 23/57/17 21/58/17 17/56/17
f 24/59/18 20/46/18 18/55/18 22/60/18
o Cube.003_Cube.010
v 0.667221 0.680552 -0.680667
v 0.635875 0.680238 -0.680667
v 0.667221 0.680552 -0.756594
v 0.635875 0.680238 -0.756594
v 0.667199 0.682721 -0.680667
v 0.635853 0.682407 -0.680667
v 0.667199 0.682721 -0.756594
v 0.635853 0.682407 -0.756594
vt 0.000000 0.000000
vt 1.000000 0.000000
vt 1.000000 1.000000
vt 0.000000 1.000000
vt 0.000000 0.000000
vt 1.000000 0.000000
vt 1.000000 1.000000
vt 0.000000 1.000000
vt 0.000000 0.000000
vt 1.000000 0.000000
vt 1.000000 1.000000
vt 0.000000 1.000000
vt 0.000000 0.000000
vt 1.000000 0.000000
vt 1.000000 1.000000
vt 0.000000 1.000000
vt 1.000000 0.000000
vt 1.000000 1.000000
vt 0.000000 0.000000
vt 0.000000 1.000000
vn 0.0100 -0.9999 0.0000
vn -0.0000 0.0000 -1.0000
vn -0.0100 0.9999 0.0000
vn 0.0000 0.0000 1.0000
vn 0.9999 0.0100 0.0000
vn -0.9999 -0.0100 0.0000
usemtl None_file02-2.jpg
s off
f 25/61/19 26/62/19 28/63/19 27/64/19
f 27/65/20 28/66/20 32/67/20 31/68/20
f 31/69/21 32/70/21 30/71/21 29/72/21
f 29/73/22 30/74/22 26/75/22 25/76/22
f 27/65/23 31/77/23 29/78/23 25/76/23
f 32/79/24 28/66/24 26/75/24 30/80/24
o Cube.004_Cube.011
v 0.667221 0.542270 -0.680667
v 0.635875 0.541955 -0.680667
v 0.667221 0.542270 -0.756594
v 0.635875 0.541955 -0.756594
v 0.667199 0.544438 -0.680667
v 0.635853 0.544124 -0.680667
v 0.667199 0.544438 -0.756594
v 0.635853 0.544124 -0.756594
vt 0.000000 0.000000
vt 1.000000 0.000000
vt 1.000000 1.000000
vt 0.000000 1.000000
vt 0.000000 0.000000
vt 1.000000 0.000000
vt 1.000000 1.000000
vt 0.000000 1.000000
vt 0.000000 0.000000
vt 1.000000 0.000000
vt 1.000000 1.000000
vt 0.000000 1.000000
vt 0.000000 0.000000
vt 1.000000 0.000000
vt 1.000000 1.000000
vt 0.000000 1.000000
vt 1.000000 0.000000
vt 1.000000 1.000000
vt 0.000000 0.000000
vt 0.000000 1.000000
vn 0.0100 -0.9999 0.0000
vn -0.0000 0.0000 -1.0000
vn -0.0100 0.9999 0.0000
vn 0.0000 0.0000 1.0000
vn 0.9999 0.0100 0.0000
vn -0.9999 -0.0100 0.0000
usemtl None_file02-2.jpg
s off
f 33/81/25 34/82/25 36/83/25 35/84/25
f 35/85/26 36/86/26 40/87/26 39/88/26
f 39/89/27 40/90/27 38/91/27 37/92/27
f 37/93/28 38/94/28 34/95/28 33/96/28
f 35/85/29 39/97/29 37/98/29 33/96/29
f 40/99/30 36/86/30 34/95/30 38/100/30
